<svg xmlns="http://www.w3.org/2000/svg" viewBox="0 0 1200 900" width="100%" height="100%">
  <style>
    .bg { fill: #FAFDFD; }
    .title { font-family: -apple-system, BlinkMacSystemFont, "Malgun Gothic", "Noto Sans KR", sans-serif; font-size: 26px; font-weight: bold; fill: #232527; }
    .subtitle { font-family: -apple-system, BlinkMacSystemFont, "Malgun Gothic", "Noto Sans KR", sans-serif; font-size: 14px; fill: #585D62; }
    
    .box-root { fill: #FAF7F2; stroke: #232527; stroke-width: 3; rx: 8; filter: drop-shadow(0px 4px 10px rgba(0,0,0,0.06)); }
    .box-main { fill: #FFFFFF; stroke: #7E8D7F; stroke-width: 2; rx: 6; }
    .box-shop { fill: #FAF7F2; stroke: #C47A5A; stroke-width: 2; rx: 6; }
    .box-modal { fill: #FFF9F5; stroke: #C47A5A; stroke-width: 2; stroke-dasharray: 4 4; rx: 6; }
    .box-my { fill: #F4F8F5; stroke: #2A2624; stroke-width: 2; rx: 6; }
    
    .node-title { font-family: -apple-system, BlinkMacSystemFont, "Malgun Gothic", "Noto Sans KR", sans-serif; font-size: 15px; font-weight: bold; fill: #232527; text-anchor: middle; }
    .node-code { font-family: -apple-system, BlinkMacSystemFont, "Malgun Gothic", "Noto Sans KR", sans-serif; font-size: 11px; font-weight: bold; fill: #C47A5A; text-anchor: middle; }
    .node-desc { font-family: -apple-system, BlinkMacSystemFont, "Malgun Gothic", "Noto Sans KR", sans-serif; font-size: 12px; fill: #585D62; text-anchor: middle; }
    
    .line { stroke: #8E949A; stroke-width: 2; fill: none; }
    .group-label { font-family: -apple-system, BlinkMacSystemFont, "Malgun Gothic", "Noto Sans KR", sans-serif; font-size: 14px; font-weight: bold; fill: #2A2624; }
  </style>

  <!-- Background -->
  <rect class="bg" width="1200" height="900" />

  <!-- Title Banner -->
  <text x="600" y="45" class="title" text-anchor="middle">클린소창 (CLEAN SOCHANG) 사이트맵 (Sitemap Architecture)</text>
  <text x="600" y="72" class="subtitle" text-anchor="middle">김환경 페르소나 (국가 공인 환경표지 원본조회 · FSC 범위명시 · 친환경 정보표 · 무비닐0%) 정보 구조</text>

  <!-- ROOT NODE -->
  <g transform="translate(470, 100)">
    <rect class="box-root" width="260" height="60" />
    <text x="130" y="28" class="node-title">클린소창 (CLEAN SOCHANG)</text>
    <text x="130" y="46" class="node-code">GREENWASHING ZERO COMMERCE</text>
  </g>

  <!-- Connectors from ROOT -->
  <path class="line" d="M 600 160 L 600 190" />
  <path class="line" d="M 600 190 L 170 190 L 170 230" />
  <path class="line" d="M 600 190 L 450 190 L 450 230" />
  <path class="line" d="M 600 190 L 750 190 L 750 230" />
  <path class="line" d="M 600 190 L 1030 190 L 1030 230" />

  <!-- GROUP 1: MAIN & ECO CERT -->
  <text x="80" y="220" class="group-label">01. 메인 &amp; 공인 환경 인증</text>
  <g transform="translate(60, 235)">
    <rect class="box-main" width="220" height="70" />
    <text x="110" y="25" class="node-code">P-01 | DEPTH 1</text>
    <text x="110" y="43" class="node-title">메인 페이지</text>
    <text x="110" y="58" class="node-desc">공인 인증 뱃지 &amp; 그린워싱 Zero</text>

    <g transform="translate(0, 95)">
      <rect class="box-main" width="220" height="70" />
      <text x="110" y="25" class="node-code">P-02 | DEPTH 2</text>
      <text x="110" y="43" class="node-title">공인 인증서 원문 페이지</text>
      <text x="110" y="58" class="node-desc">1초 공식 조회 링크 연결</text>
    </g>

    <g transform="translate(0, 190)">
      <rect class="box-main" width="220" height="70" />
      <text x="110" y="25" class="node-code">P-03 | DEPTH 2</text>
      <text x="110" y="43" class="node-title">수명 &amp; 세탁 가이드</text>
      <text x="110" y="58" class="node-desc">정련 폐수 공정 100% 공개</text>
    </g>
  </g>

  <!-- GROUP 2: ECO SHOP & DATA -->
  <text x="360" y="220" class="group-label">02. 커머스 &amp; 환경 데이터</text>
  <g transform="translate(340, 235)">
    <rect class="box-shop" width="220" height="70" />
    <text x="110" y="25" class="node-code">P-04 | DEPTH 1</text>
    <text x="110" y="43" class="node-title">전체 에코 카탈로그</text>
    <text x="110" y="58" class="node-desc">무비닐 / 오가닉 / 와입스</text>

    <g transform="translate(0, 95)">
      <rect class="box-shop" width="220" height="70" />
      <text x="110" y="25" class="node-code">P-05 | DEPTH 2</text>
      <text x="110" y="43" class="node-title">상품 상세 페이지</text>
      <text x="110" y="58" class="node-desc">친환경 정보표 &amp; 무비닐 0%</text>
    </g>

    <g transform="translate(0, 190)">
      <rect class="box-shop" width="220" height="70" />
      <text x="110" y="25" class="node-code">P-06 | DEPTH 3</text>
      <text x="110" y="43" class="node-title">친환경 정보표 비교</text>
      <text x="110" y="58" class="node-desc">Eco Specs Sheet 한눈 비교</text>
    </g>

    <g transform="translate(0, 285)">
      <rect class="box-shop" width="220" height="70" />
      <text x="110" y="25" class="node-code">P-07 | DEPTH 3</text>
      <text x="110" y="43" class="node-title">폐수 공정 &amp; 데이터</text>
      <text x="110" y="58" class="node-desc">탄소/물 절감 데이터 공개</text>
    </g>
  </g>

  <!-- GROUP 3: POP-UP & RECYCLING -->
  <text x="660" y="220" class="group-label">03. 팝업스토어 &amp; 수명 가이드</text>
  <g transform="translate(640, 235)">
    <rect class="box-main" width="220" height="70" />
    <text x="110" y="25" class="node-code">P-08 | DEPTH 1</text>
    <text x="110" y="43" class="node-title">성수 팝업스토어 안내</text>
    <text x="110" y="58" class="node-desc">사전예약 M-01 / 카카오맵</text>

    <g transform="translate(0, 95)">
      <rect class="box-main" width="220" height="70" />
      <text x="110" y="25" class="node-code">P-09 | DEPTH 2</text>
      <text x="110" y="43" class="node-title">업사이클 청소 가이드</text>
      <text x="110" y="58" class="node-desc">낡은 수건 걸레 리사이클</text>
    </g>

    <g transform="translate(0, 190)">
      <rect class="box-main" width="220" height="70" />
      <text x="110" y="25" class="node-code">P-10 | DEPTH 2</text>
      <text x="110" y="43" class="node-title">에코 맘리뷰</text>
      <text x="110" y="58" class="node-desc">무비닐 포장 실구매자 후기</text>
    </g>
  </g>

  <!-- GROUP 4: UTILITIES & RECYCLING -->
  <text x="940" y="220" class="group-label">04. 마이페이지 &amp; 자원 회수</text>
  <g transform="translate(920, 235)">
    <rect class="box-my" width="220" height="70" />
    <text x="110" y="25" class="node-code">P-11 | DEPTH 1</text>
    <text x="110" y="43" class="node-title">장바구니 &amp; 1초 결제</text>
    <text x="110" y="58" class="node-desc">무비닐 0% / 묶음 합배송</text>

    <g transform="translate(0, 95)">
      <rect class="box-my" width="220" height="70" />
      <text x="110" y="25" class="node-code">P-12 | DEPTH 2</text>
      <text x="110" y="43" class="node-title">마이페이지 &amp; 자원 회수</text>
      <text x="110" y="58" class="node-desc">포장재/수건 수거 신청 M-03</text>
    </g>
  </g>

  <!-- MODAL OVERLAY SECTION -->
  <text x="80" y="620" class="group-label">05. 레이어드 모달 시스템 (Modal Overlays)</text>
  <g transform="translate(60, 640)">
    <rect class="box-modal" width="340" height="75" />
    <text x="170" y="25" class="node-code">MODAL M-01</text>
    <text x="170" y="45" class="node-title">성수 팝업 사전예약 모달</text>
    <text x="170" y="62" class="node-desc">타임슬롯 14:00 (3석 남음) &amp; 알림톡</text>

    <g transform="translate(370, 0)">
      <rect class="box-modal" width="340" height="75" />
      <text x="170" y="25" class="node-code">MODAL M-02</text>
      <text x="170" y="45" class="node-title">공인 인증서 200% 원문 모달</text>
      <text x="170" y="62" class="node-desc">국가 인증서 200% HD &amp; 공식 조회 링크</text>
    </g>

    <g transform="translate(740, 0)">
      <rect class="box-modal" width="340" height="75" />
      <text x="170" y="25" class="node-code">MODAL M-03</text>
      <text x="170" y="45" class="node-title">자원 회수 무료 수거 모달</text>
      <text x="170" y="62" class="node-desc">수명이 다한 수건/포장재 무료 수거</text>
    </g>
  </g>
</svg>
